<?xml version="1.0" encoding="UTF-8"?>
<svg xmlns="http://www.w3.org/2000/svg" xmlns:xlink="http://www.w3.org/1999/xlink" viewBox="0 0 50 50" width="50px" height="50px">
<g id="surface57284467">
<path style=" stroke:none;fill-rule:nonzero;fill:rgb(100%,52.549022%,51.372552%);fill-opacity:1;" d="M 0 25 C 0 11.191406 11.191406 0 25 0 C 38.808594 0 50 11.191406 50 25 C 50 38.808594 38.808594 50 25 50 C 11.191406 50 0 38.808594 0 25 Z M 25 48 C 37.703125 48 48 37.703125 48 25 C 48 12.296875 37.703125 2 25 2 C 12.296875 2 2 12.296875 2 25 C 2 37.703125 12.296875 48 25 48 Z M 25 48 "/>
<path style=" stroke:none;fill-rule:evenodd;fill:rgb(100%,52.549022%,51.372552%);fill-opacity:1;" d="M 37.324219 7.652344 L 35.023438 8.050781 L 37.519531 21.707031 L 39.652344 21.425781 Z M 29.105469 11 L 26.957031 12.292969 L 34.605469 23.511719 L 36.492188 22.347656 Z M 22.226562 17.507812 L 20.964844 19.511719 L 32.503906 26.488281 L 33.554688 24.667969 Z M 18.910156 24.539062 L 18.351562 26.789062 L 31.648438 30.15625 L 31.859375 28.136719 Z M 13.378906 27.988281 L 13.378906 42.226562 L 35.804688 42.238281 L 35.804688 42.226562 C 35.828125 42.226562 35.878906 27.988281 35.878906 27.988281 L 33.628906 27.988281 L 33.628906 39.988281 L 15.628906 39.988281 L 15.628906 27.988281 Z M 17.992188 30.503906 L 17.804688 32.742188 L 31.378906 33.988281 L 31.53125 32.113281 Z M 17.804688 35.488281 L 17.878906 37.738281 L 31.378906 37.683594 L 31.378906 35.488281 Z M 17.804688 35.488281 "/>
</g>
</svg>
